<svg width="480" height="480" viewBox="0 0 480 480" fill="none" xmlns="http://www.w3.org/2000/svg">
<path d="M225.795 28.4111C350.498 28.4112 451.59 129.503 451.59 254.206C451.59 378.909 350.498 480.001 225.795 480.001C101.092 480.001 9.25892e-05 378.909 0 254.206C0 129.503 101.092 28.4111 225.795 28.4111ZM225.625 138.028C135.793 138.26 46.6562 169.782 46.6562 233.187C46.6568 311.584 194.538 391.541 227.747 391.542C260.956 391.541 408.835 311.584 408.836 233.187C408.836 169.782 319.701 138.26 229.869 138.028H225.625ZM213 362.158V369.839H204.856V368.1H212.672V366.052H204.856V362.158H213ZM222.927 362.158V366.663H215.191V369.838H222.927V369.839H214.784V362.158H222.927ZM232.864 362.158V369.839H224.722V362.158H232.864ZM252.704 362.158V363.082H244.971V365.13H252.704V366.052H244.971V368.1H252.704V369.839H244.562V362.158H252.704ZM225.13 366.663V369.838H232.458V366.663H225.13ZM242.781 362.158V363.08H235.045V368.098H242.781V369.838H234.638V362.158H242.781ZM205.181 363.082V365.13H212.998V363.082H205.181ZM215.194 363.082V365.13H222.523V363.082H215.194ZM225.13 363.082V365.13H232.458V363.082H225.13ZM225.646 339.44V339.866H222.064V340.805H225.646V342.962H221.912V339.44H225.646ZM226.58 339.44V342.164H229.94V339.44H230.131V342.962H226.397V339.44H226.58ZM234.612 339.44V342.962H230.879V339.44H234.612ZM221.914 341.229V342.169H225.499V341.229H221.914ZM231.064 341.229V342.169H234.425V341.229H231.064ZM231.07 339.866V340.805H234.057V339.866H231.07ZM88.1182 207.651C114.042 196.121 141.244 214.016 157.282 234.036C163.435 241.845 167.56 250.183 171.937 258.473C175.662 265.528 179.493 272.352 184.863 278.943C185.76 280.054 186.623 281.175 187.48 282.299C194.576 291.493 202.275 299.403 211.134 307.855C160.177 318.836 58.1372 303.906 68.9902 231.465C70.3649 223.946 73.4468 216.127 82.1846 210.808L83.0479 210.24C84.1936 209.669 85.3456 209.102 86.5 208.538L88.1182 207.651ZM298.21 234.036C314.248 214.016 341.451 196.121 367.375 207.651L368.993 208.538C370.148 209.102 371.299 209.669 372.445 210.24L373.309 210.808C382.046 216.127 385.128 223.946 386.503 231.465C397.356 303.906 295.315 318.837 244.358 307.855C253.217 299.403 260.916 291.493 268.012 282.299C268.87 281.175 269.733 280.054 270.629 278.943C275.999 272.352 279.83 265.528 283.556 258.473C287.932 250.183 292.057 241.845 298.21 234.036Z" fill="#D0FE17"/>
<path d="M436.274 74.7665V0H448.961V74.7665H436.274ZM405.234 43.7271V31.0394H480.001V43.7271H405.234Z" fill="#D0FE17"/>
</svg>
