<svg width="316" height="124" viewBox="0 0 316 124" fill="none" xmlns="http://www.w3.org/2000/svg">
<path d="M0 123.453H316V0H0V123.453ZM162.295 123.451H16.7656L230.649 43.625L162.295 123.451ZM150.827 84.7529L144.839 87.2305L143.063 87.9648L149.777 88.7471L140.923 92.9678L140.215 92.8857L140.073 92.9619L131.857 97.3613L130.455 98.1123L133.929 98.5166L134.071 98.4404L142.202 94.0293L142.688 93.7656L143.867 93.9033L131.979 101.051L130.727 101.805L133.888 102.173L134.039 102.081L146.392 94.5928L147.634 93.8389L147.363 93.8066L155.652 89.6279L161.265 90.2822L161.418 90.1865L166.765 86.8418L167.968 86.0889L165.082 85.752L164.933 85.8408L160.576 88.4277L157.637 88.085L157.505 88.1475L157.158 88.3096L152.483 87.7637L153.086 87.3252L151.737 87.2334L148.905 87.043L152.1 85.7822L151.992 84.8242L150.949 84.7021L150.827 84.7529ZM161.272 84.8213C159.057 84.5633 156.797 84.9843 154.8 86.0283L154.664 86.0996C154.025 86.4337 154.162 87.3741 154.865 87.4873L154.935 87.499C157.212 87.8647 159.565 87.3882 161.551 86.1602C162.142 85.7938 161.956 84.901 161.272 84.8213ZM160.438 25.8887C164.68 25.8922 170.756 26.2813 178.25 27.0264C193.219 28.5146 213.649 31.4002 235.979 35.333C258.31 39.2658 278.271 43.4941 292.486 47.1455C296.335 48.1342 299.749 49.0791 302.666 49.959C295.84 50.8589 286.635 50.8937 274.651 49.9766C262.403 48.384 248.192 46.2081 233.114 43.5527C210.783 39.6199 190.821 35.3907 176.606 31.7393C170.027 30.0491 164.72 28.4927 160.989 27.1572C160.222 26.7463 159.496 26.3308 158.812 25.9092C159.312 25.8954 159.854 25.8882 160.438 25.8887ZM155.754 23.7744C157.219 19.3567 192.706 21.3553 235.017 28.2393C277.326 35.1231 310.438 44.2853 308.975 48.7031C308.348 48.8827 307.689 49.0488 306.997 49.2041C294.604 45.1058 269.941 39.4293 240.805 34.1816L236.64 33.4395C198.421 26.7087 165.701 23.0305 156.264 24.1699C156.091 24.0384 155.92 23.9071 155.754 23.7744ZM203.081 21.6963C206.619 20.0049 221.98 19.4153 239.03 22.3252C256.542 25.314 269.733 30.9525 271.157 33.499C267.723 31.0818 254.333 27.4469 237.896 24.6416C222.013 21.931 208.162 20.8266 203.081 21.6963Z" fill="#131313"/>
</svg>
