<svg width="509" height="515" viewBox="0 0 509 515" fill="none" xmlns="http://www.w3.org/2000/svg">
<path d="M243.851 28.0889C378.307 28.089 487.306 137.087 487.306 271.544C487.306 406 378.307 514.999 243.851 514.999C109.394 514.999 0.394531 406.001 0.394531 271.544C0.394542 137.087 109.394 28.0889 243.851 28.0889ZM243.667 146.28C146.809 146.53 50.7015 180.517 50.7012 248.881C50.7015 333.41 210.148 419.621 245.955 419.622C281.761 419.622 441.209 333.411 441.209 248.881C441.209 180.517 345.101 146.53 248.243 146.28H243.667ZM230.06 387.938V396.22H221.279V394.344H229.707V392.136H221.279V387.938H230.06ZM240.761 387.938V396.22H231.98V387.938H240.761ZM251.476 387.938V396.22H242.695V387.938H251.476ZM272.868 387.938V388.935H264.531V391.143H272.868V392.136H264.531V394.344H272.868V396.22H264.088V387.938H272.868ZM262.17 387.938V388.932H253.828V394.342H262.17V396.219H253.39V387.938H262.17ZM232.419 392.796V396.218H240.76V392.796H232.419ZM243.135 392.796V396.218H251.037V392.796H243.135ZM221.629 388.935V391.143H230.058V388.935H221.629ZM232.422 388.935V391.143H240.324V388.935H232.422ZM243.135 388.935V391.143H251.037V388.935H243.135ZM243.687 363.444V363.903H239.825V364.915H243.687V367.24H239.661V363.444H243.687ZM244.694 363.444V366.38H248.317V363.444H248.523V367.24H244.498V363.444H244.694ZM253.358 363.444V367.24H249.333V363.444H253.358ZM239.663 365.373V366.386H243.527V365.373H239.663ZM249.533 365.373V366.386H253.156V365.373H249.533ZM249.539 363.903V364.915H252.76V363.903H249.539ZM95.4053 221.349C123.357 208.916 152.686 228.211 169.979 249.797C176.613 258.217 181.061 267.208 185.78 276.146C189.797 283.752 193.928 291.11 199.718 298.217C200.684 299.415 201.615 300.623 202.54 301.835C210.19 311.748 218.492 320.276 228.044 329.39C173.102 341.23 63.0804 325.133 74.7822 247.025C76.2644 238.918 79.5866 230.487 89.0078 224.752L89.9385 224.14C91.174 223.523 92.4162 222.913 93.6611 222.305L95.4053 221.349ZM321.931 249.797C339.224 228.211 368.554 208.916 396.505 221.349L398.249 222.305C399.494 222.913 400.736 223.523 401.972 224.14L402.902 224.752C412.324 230.487 415.646 238.918 417.128 247.025C428.83 325.133 318.808 341.23 263.866 329.39C273.418 320.276 281.72 311.748 289.37 301.835C290.295 300.623 291.226 299.415 292.192 298.217C297.983 291.11 302.113 283.752 306.13 276.146C310.849 267.208 315.297 258.217 321.931 249.797Z" fill="#131313"/>
<path d="M461.473 80.6143V0H475.153V80.6143H461.473ZM428.006 47.1472V33.4672H508.62V47.1472H428.006Z" fill="black"/>
</svg>
