<svg width="363" height="255" viewBox="0 0 363 255" fill="none" xmlns="http://www.w3.org/2000/svg">
<path d="M183.869 0.617188C273.701 0.848637 362.836 32.3708 362.836 95.7754C362.835 174.173 214.956 254.13 181.747 254.131C148.538 254.13 0.656816 174.173 0.65625 95.7754C0.65625 32.3707 89.7932 0.848556 179.625 0.617188H183.869ZM158.856 228.641H166.672V230.688H158.856V232.428H167V224.747H158.856V228.641ZM168.784 232.428H176.927V232.427H169.191V229.252H176.927V224.747H168.784V232.428ZM178.722 232.428H186.864V224.747H178.722V232.428ZM198.562 232.428H206.704V230.688H198.971V228.641H206.704V227.719H198.971V225.671H206.704V224.747H198.562V232.428ZM186.458 232.427H179.13V229.252H186.458V232.427ZM188.638 232.427H196.781V230.687H189.045V225.669H196.781V224.747H188.638V232.427ZM166.998 227.719H159.181V225.671H166.998V227.719ZM176.523 227.719H169.194V225.671H176.523V227.719ZM186.458 227.719H179.13V225.671H186.458V227.719ZM175.912 205.551H179.646V203.394H176.064V202.455H179.646V202.029H175.912V205.551ZM180.397 205.551H184.131V202.029H183.94V204.753H180.58V202.029H180.397V205.551ZM184.879 205.551H188.612V202.029H184.879V205.551ZM179.499 204.758H175.914V203.818H179.499V204.758ZM188.425 204.758H185.064V203.818H188.425V204.758ZM188.057 203.394H185.07V202.455H188.057V203.394ZM111.282 96.625C95.2438 76.6045 68.0418 58.7097 42.1182 70.2402L40.5 71.127C39.3456 71.6908 38.1936 72.2576 37.0479 72.8291L36.1846 73.3965C27.4468 78.7159 24.3649 86.5346 22.9902 94.0537C12.1372 166.495 114.177 181.425 165.134 170.444C156.275 161.992 148.576 154.082 141.48 144.888C140.623 143.764 139.76 142.643 138.863 141.532C133.493 134.941 129.662 128.117 125.937 121.062C121.56 112.772 117.435 104.434 111.282 96.625ZM321.375 70.2402C295.451 58.7096 268.248 76.6044 252.21 96.625C246.057 104.434 241.932 112.772 237.556 121.062C233.83 128.117 229.999 134.941 224.629 141.532C223.733 142.643 222.87 143.764 222.012 144.888C214.916 154.082 207.217 161.992 198.358 170.444C249.315 181.425 351.356 166.495 340.503 94.0537C339.128 86.5346 336.046 78.7159 327.309 73.3965L326.445 72.8291C325.3 72.2576 324.148 71.6909 322.993 71.127L321.375 70.2402Z" fill="black"/>
</svg>
