<svg width="731" height="731" viewBox="0 0 731 731" fill="none" xmlns="http://www.w3.org/2000/svg">
<rect width="731" height="731" rx="169" fill="#D0FE17"/>
<path d="M363.946 96.1064C522.423 96.1064 650.894 224.577 650.894 383.054C650.893 541.53 522.422 670 363.946 670C205.47 670 77.0003 541.53 77 383.054C77 224.578 205.47 96.1066 363.946 96.1064ZM363.729 235.412C249.569 235.706 136.292 275.765 136.292 356.341C136.292 455.971 324.224 557.584 366.427 557.584C408.629 557.584 596.561 455.971 596.561 356.341C596.56 275.764 483.284 235.706 369.123 235.412H363.729ZM347.687 520.24V530H337.338V527.791H347.271V525.188H337.338V520.24H347.687ZM360.303 520.24V530H349.954V520.24H360.303ZM372.932 520.24V530H362.583V520.24H372.932ZM385.534 520.24V521.411H375.703V527.788H385.534V530H375.186V520.24H385.534ZM398.145 520.24V521.414H388.317V524.017H398.145V525.188H388.317V527.791H398.145V530H387.796V520.24H398.145ZM350.471 525.965V529.999H360.302V525.965H350.471ZM363.101 525.965V529.999H372.415V525.965H363.101ZM337.75 521.414V524.017H347.685V521.414H337.75ZM350.475 521.414V524.017H359.788V521.414H350.475ZM363.101 521.414V524.017H372.415V521.414H363.101ZM363.753 491.371V491.912H359.201V493.105H363.753V495.846H359.008V491.371H363.753ZM364.942 491.371V494.831H369.213V491.371H369.455V495.846H364.71V491.371H364.942ZM375.152 491.371V495.846H370.407V491.371H375.152ZM359.01 493.645V494.838H363.565V493.645H359.01ZM370.643 493.645V494.838H374.912V493.645H370.643ZM370.65 491.912V493.105H374.446V491.912H370.65ZM188.982 323.891C221.927 309.237 256.497 331.978 276.879 357.421C284.698 367.345 289.94 377.941 295.502 388.476C300.237 397.442 305.105 406.114 311.93 414.491C313.069 415.903 314.166 417.327 315.256 418.755C324.273 430.439 334.057 440.49 345.315 451.232C280.558 465.188 150.882 446.214 164.674 354.154C166.421 344.599 170.338 334.662 181.442 327.901L182.539 327.181C183.995 326.454 185.459 325.734 186.926 325.018L188.982 323.891ZM455.974 357.421C476.356 331.978 510.925 309.237 543.87 323.891L545.927 325.018C547.394 325.734 548.857 326.454 550.313 327.181L551.41 327.901C562.515 334.662 566.432 344.599 568.179 354.154C581.971 446.215 452.294 465.188 387.537 451.232C398.795 440.49 408.58 430.439 417.597 418.755C418.687 417.327 419.784 415.903 420.923 414.491C427.748 406.114 432.616 397.442 437.351 388.476C442.913 377.941 448.155 367.345 455.974 357.421Z" fill="#131313"/>
<path d="M620.446 158.015V63H636.57V158.015H620.446ZM581 118.57V102.446H676.015V118.57H581Z" fill="black"/>
</svg>
