<svg width="731" height="731" viewBox="0 0 731 731" fill="none" xmlns="http://www.w3.org/2000/svg">
<rect width="731" height="731" fill="#D0FE17"/>
<path d="M355.468 216.065C443.539 216.065 514.935 287.462 514.936 375.533C514.936 463.605 443.539 535.001 355.468 535.001C267.396 535.001 196 463.605 196 375.533C196 287.462 267.396 216.065 355.468 216.065ZM355.348 293.483C291.904 293.647 228.951 315.909 228.951 360.688C228.951 416.057 333.393 472.527 356.847 472.527C380.301 472.527 484.741 416.057 484.741 360.688C484.741 315.909 421.788 293.647 358.345 293.483H355.348ZM346.43 451.773V457.197H340.679V455.97H346.199V454.522H340.679V451.773H346.43ZM353.442 451.773V454.954H347.979V457.196H353.442V457.197H347.69V451.773H353.442ZM360.461 451.773V457.197H354.71V451.773H360.461ZM367.464 451.773V452.424H362.001V455.968H367.464V457.197H361.713V451.773H367.464ZM374.473 451.773V452.426H369.011V453.872H374.473V454.522H369.011V455.97H374.473V457.197H368.722V451.773H374.473ZM354.998 454.954V457.196H360.174V454.954H354.998ZM340.907 452.426V453.872H346.429V452.426H340.907ZM347.98 452.426V453.872H353.156V452.426H347.98ZM354.998 452.426V453.872H360.174V452.426H354.998ZM355.357 435.729V436.029H352.828V436.692H355.357V438.217H352.721V435.729H355.357ZM356.02 435.729V437.652H358.393V435.729H358.527V438.217H355.891V435.729H356.02ZM361.693 435.729V438.217H359.057V435.729H361.693ZM352.722 436.993V437.656H355.253V436.993H352.722ZM359.188 436.993V437.656H361.561V436.993H359.188ZM359.19 436.029V436.692H361.3V436.029H359.19ZM258.233 342.654C276.542 334.511 295.754 347.15 307.081 361.289C311.426 366.804 314.34 372.693 317.431 378.547C320.062 383.53 322.767 388.35 326.56 393.005C327.193 393.789 327.802 394.58 328.408 395.374C333.419 401.867 338.857 407.454 345.113 413.424C309.125 421.179 237.06 410.635 244.725 359.474C245.695 354.163 247.872 348.641 254.043 344.884L254.652 344.483C255.462 344.08 256.275 343.679 257.091 343.28L258.233 342.654ZM406.611 361.289C417.939 347.149 437.15 334.511 455.459 342.654L456.602 343.28C457.417 343.679 458.231 344.08 459.04 344.483L459.649 344.884C465.821 348.641 467.997 354.163 468.968 359.474C476.632 410.635 404.566 421.179 368.578 413.424C374.835 407.454 380.272 401.867 385.283 395.374C385.889 394.58 386.499 393.789 387.132 393.005C390.925 388.349 393.63 383.53 396.262 378.547C399.353 372.693 402.266 366.804 406.611 361.289Z" fill="#131313"/>
<path d="M504.119 248.804V196H513.08V248.804H504.119ZM482.197 226.882V217.922H535.001V226.882H482.197Z" fill="black"/>
</svg>
