<svg width="731" height="731" viewBox="0 0 731 731" fill="none" xmlns="http://www.w3.org/2000/svg">
<rect width="731" height="731" fill="#D0FE17"/>
<path d="M367.795 153.411C492.498 153.411 593.59 254.503 593.59 379.206C593.59 503.909 492.498 605.001 367.795 605.001C243.092 605.001 142 503.909 142 379.206C142 254.503 243.092 153.411 367.795 153.411ZM367.625 263.028C277.793 263.26 188.656 294.782 188.656 358.187C188.657 436.584 336.538 516.541 369.747 516.542C402.956 516.541 550.835 436.584 550.836 358.187C550.836 294.782 461.701 263.26 371.869 263.028H367.625ZM355 487.158V494.839H346.856V493.1H354.672V491.052H346.856V487.158H355ZM364.927 487.158V491.663H357.191V494.838H364.927V494.839H356.784V487.158H364.927ZM374.864 487.158V494.839H366.722V487.158H374.864ZM394.704 487.158V488.082H386.971V490.13H394.704V491.052H386.971V493.1H394.704V494.839H386.562V487.158H394.704ZM367.13 491.663V494.838H374.458V491.663H367.13ZM384.781 487.158V488.08H377.045V493.098H384.781V494.838H376.638V487.158H384.781ZM347.181 488.082V490.13H354.998V488.082H347.181ZM357.194 488.082V490.13H364.523V488.082H357.194ZM367.13 488.082V490.13H374.458V488.082H367.13ZM367.646 464.44V464.866H364.064V465.805H367.646V467.962H363.912V464.44H367.646ZM368.58 464.44V467.164H371.94V464.44H372.131V467.962H368.397V464.44H368.58ZM376.612 464.44V467.962H372.879V464.44H376.612ZM363.914 466.229V467.169H367.499V466.229H363.914ZM373.064 466.229V467.169H376.425V466.229H373.064ZM373.07 464.866V465.805H376.057V464.866H373.07ZM230.118 332.651C256.042 321.121 283.244 339.016 299.282 359.036C305.435 366.845 309.56 375.183 313.937 383.473C317.662 390.528 321.493 397.352 326.863 403.943C327.76 405.054 328.623 406.175 329.48 407.299C336.576 416.493 344.275 424.403 353.134 432.855C302.177 443.836 200.137 428.906 210.99 356.465C212.365 348.946 215.447 341.127 224.185 335.808L225.048 335.24C226.194 334.669 227.346 334.102 228.5 333.538L230.118 332.651ZM440.21 359.036C456.248 339.016 483.451 321.121 509.375 332.651L510.993 333.538C512.148 334.102 513.299 334.669 514.445 335.24L515.309 335.808C524.046 341.127 527.128 348.946 528.503 356.465C539.356 428.906 437.315 443.837 386.358 432.855C395.217 424.403 402.916 416.493 410.012 407.299C410.87 406.175 411.733 405.054 412.629 403.943C417.999 397.352 421.83 390.528 425.556 383.473C429.932 375.183 434.057 366.845 440.21 359.036Z" fill="#131313"/>
<path d="M578.274 199.767V125H590.961V199.767H578.274ZM547.234 168.727V156.039H622.001V168.727H547.234Z" fill="black"/>
</svg>
